G04 MADE WITH FRITZING*
G04 WWW.FRITZING.ORG*
G04 DOUBLE SIDED*
G04 HOLES PLATED*
G04 CONTOUR ON CENTER OF CONTOUR VECTOR*
%ASAXBY*%
%FSLAX23Y23*%
%MOIN*%
%OFA0B0*%
%SFA1.0B1.0*%
%ADD10R,0.062992X0.074803*%
%ADD11R,0.137795X0.078740*%
%ADD12R,0.078740X0.137795*%
%ADD13R,0.035433X0.027559*%
%ADD14R,0.001000X0.001000*%
%LNPASTEMASK1*%
G90*
G70*
G54D10*
X44Y589D03*
X166Y589D03*
G54D11*
X844Y627D03*
X844Y489D03*
X1179Y489D03*
X1179Y627D03*
X379Y89D03*
X379Y227D03*
G54D12*
X1682Y689D03*
X1544Y689D03*
X1544Y354D03*
X1682Y354D03*
X2182Y689D03*
X2044Y689D03*
X2044Y354D03*
X2182Y354D03*
X2682Y689D03*
X2544Y689D03*
X2544Y354D03*
X2682Y354D03*
G54D13*
X2047Y714D03*
X2047Y663D03*
X1603Y1159D03*
X1603Y1107D03*
X1825Y936D03*
X1825Y885D03*
X1380Y1381D03*
X1380Y1330D03*
X644Y189D03*
X644Y138D03*
G54D14*
X0Y266D02*
X112Y266D01*
X0Y265D02*
X112Y265D01*
X0Y264D02*
X112Y264D01*
X0Y263D02*
X112Y263D01*
X0Y262D02*
X112Y262D01*
X0Y261D02*
X112Y261D01*
X0Y260D02*
X112Y260D01*
X0Y259D02*
X112Y259D01*
X0Y258D02*
X112Y258D01*
X0Y257D02*
X112Y257D01*
X0Y256D02*
X112Y256D01*
X0Y255D02*
X112Y255D01*
X0Y254D02*
X112Y254D01*
X0Y253D02*
X112Y253D01*
X0Y252D02*
X112Y252D01*
X0Y251D02*
X112Y251D01*
X0Y250D02*
X112Y250D01*
X0Y249D02*
X112Y249D01*
X0Y248D02*
X112Y248D01*
X0Y247D02*
X112Y247D01*
X0Y246D02*
X112Y246D01*
X0Y245D02*
X112Y245D01*
X0Y244D02*
X112Y244D01*
X0Y243D02*
X112Y243D01*
X0Y242D02*
X112Y242D01*
X0Y241D02*
X112Y241D01*
X0Y240D02*
X112Y240D01*
X0Y239D02*
X112Y239D01*
X0Y238D02*
X112Y238D01*
X0Y237D02*
X112Y237D01*
X0Y236D02*
X112Y236D01*
X0Y235D02*
X112Y235D01*
X0Y234D02*
X112Y234D01*
X0Y233D02*
X112Y233D01*
X0Y232D02*
X112Y232D01*
X0Y231D02*
X112Y231D01*
X0Y230D02*
X112Y230D01*
X0Y229D02*
X112Y229D01*
X0Y228D02*
X112Y228D01*
X0Y227D02*
X112Y227D01*
X0Y226D02*
X112Y226D01*
X0Y225D02*
X112Y225D01*
X0Y224D02*
X112Y224D01*
X0Y223D02*
X112Y223D01*
X0Y222D02*
X112Y222D01*
X0Y221D02*
X112Y221D01*
X0Y220D02*
X112Y220D01*
X0Y219D02*
X112Y219D01*
X0Y218D02*
X112Y218D01*
X0Y217D02*
X112Y217D01*
X0Y216D02*
X112Y216D01*
X0Y215D02*
X112Y215D01*
X0Y214D02*
X112Y214D01*
X0Y213D02*
X112Y213D01*
X0Y212D02*
X112Y212D01*
X0Y211D02*
X112Y211D01*
X0Y210D02*
X112Y210D01*
X0Y209D02*
X112Y209D01*
X0Y208D02*
X112Y208D01*
X0Y207D02*
X112Y207D01*
X0Y206D02*
X112Y206D01*
X0Y205D02*
X112Y205D01*
X0Y204D02*
X112Y204D01*
X0Y203D02*
X112Y203D01*
X0Y202D02*
X112Y202D01*
X0Y201D02*
X112Y201D01*
X0Y200D02*
X112Y200D01*
X0Y199D02*
X112Y199D01*
X0Y198D02*
X112Y198D01*
X0Y197D02*
X112Y197D01*
X0Y196D02*
X112Y196D01*
X0Y195D02*
X112Y195D01*
X0Y194D02*
X112Y194D01*
X0Y193D02*
X112Y193D01*
X0Y192D02*
X112Y192D01*
X0Y191D02*
X112Y191D01*
X0Y190D02*
X112Y190D01*
X0Y189D02*
X112Y189D01*
X0Y188D02*
X112Y188D01*
X0Y128D02*
X112Y128D01*
X0Y127D02*
X112Y127D01*
X0Y126D02*
X112Y126D01*
X0Y125D02*
X112Y125D01*
X0Y124D02*
X112Y124D01*
X0Y123D02*
X112Y123D01*
X0Y122D02*
X112Y122D01*
X0Y121D02*
X112Y121D01*
X0Y120D02*
X112Y120D01*
X0Y119D02*
X112Y119D01*
X0Y118D02*
X112Y118D01*
X0Y117D02*
X112Y117D01*
X0Y116D02*
X112Y116D01*
X0Y115D02*
X112Y115D01*
X0Y114D02*
X112Y114D01*
X0Y113D02*
X112Y113D01*
X0Y112D02*
X112Y112D01*
X0Y111D02*
X112Y111D01*
X0Y110D02*
X112Y110D01*
X0Y109D02*
X112Y109D01*
X0Y108D02*
X112Y108D01*
X0Y107D02*
X112Y107D01*
X0Y106D02*
X112Y106D01*
X0Y105D02*
X112Y105D01*
X0Y104D02*
X112Y104D01*
X0Y103D02*
X112Y103D01*
X0Y102D02*
X112Y102D01*
X0Y101D02*
X112Y101D01*
X0Y100D02*
X112Y100D01*
X0Y99D02*
X112Y99D01*
X0Y98D02*
X112Y98D01*
X0Y97D02*
X112Y97D01*
X0Y96D02*
X112Y96D01*
X0Y95D02*
X112Y95D01*
X0Y94D02*
X112Y94D01*
X0Y93D02*
X112Y93D01*
X0Y92D02*
X112Y92D01*
X0Y91D02*
X112Y91D01*
X0Y90D02*
X112Y90D01*
X0Y89D02*
X112Y89D01*
X0Y88D02*
X112Y88D01*
X0Y87D02*
X112Y87D01*
X0Y86D02*
X112Y86D01*
X0Y85D02*
X112Y85D01*
X0Y84D02*
X112Y84D01*
X0Y83D02*
X112Y83D01*
X0Y82D02*
X112Y82D01*
X0Y81D02*
X112Y81D01*
X0Y80D02*
X112Y80D01*
X0Y79D02*
X112Y79D01*
X0Y78D02*
X112Y78D01*
X0Y77D02*
X112Y77D01*
X0Y76D02*
X112Y76D01*
X0Y75D02*
X112Y75D01*
X0Y74D02*
X112Y74D01*
X0Y73D02*
X112Y73D01*
X0Y72D02*
X112Y72D01*
X0Y71D02*
X112Y71D01*
X0Y70D02*
X112Y70D01*
X0Y69D02*
X112Y69D01*
X0Y68D02*
X112Y68D01*
X0Y67D02*
X112Y67D01*
X0Y66D02*
X112Y66D01*
X0Y65D02*
X112Y65D01*
X0Y64D02*
X112Y64D01*
X0Y63D02*
X112Y63D01*
X0Y62D02*
X112Y62D01*
X0Y61D02*
X112Y61D01*
X0Y60D02*
X112Y60D01*
X0Y59D02*
X112Y59D01*
X0Y58D02*
X112Y58D01*
X0Y57D02*
X112Y57D01*
X0Y56D02*
X112Y56D01*
X0Y55D02*
X112Y55D01*
X0Y54D02*
X112Y54D01*
X0Y53D02*
X112Y53D01*
X0Y52D02*
X112Y52D01*
X0Y51D02*
X112Y51D01*
D02*
G04 End of PasteMask1*
M02*