G04 MADE WITH FRITZING*
G04 WWW.FRITZING.ORG*
G04 DOUBLE SIDED*
G04 HOLES PLATED*
G04 CONTOUR ON CENTER OF CONTOUR VECTOR*
%ASAXBY*%
%FSLAX23Y23*%
%MOIN*%
%OFA0B0*%
%SFA1.0B1.0*%
%ADD10C,0.075278*%
%ADD11C,0.084000*%
%ADD12C,0.085000*%
%ADD13C,0.088000*%
%ADD14C,0.102000*%
%ADD15R,0.085000X0.085000*%
%ADD16R,0.072992X0.084803*%
%ADD17R,0.147795X0.088740*%
%ADD18R,0.088740X0.147795*%
%ADD19R,0.045433X0.037559*%
%ADD20R,0.088000X0.088000*%
%ADD21R,0.102000X0.102000*%
%ADD22R,0.001000X0.001000*%
%LNMASK1*%
G90*
G70*
G54D10*
X1544Y1089D03*
X1644Y1089D03*
X1744Y1089D03*
X1844Y1089D03*
X1944Y1089D03*
X644Y1089D03*
X544Y1089D03*
X744Y1089D03*
X844Y1089D03*
X944Y1089D03*
X1044Y1089D03*
X1144Y1089D03*
X1244Y1089D03*
X1444Y1089D03*
G54D11*
X3169Y349D03*
X3269Y349D03*
X3169Y349D03*
X3269Y349D03*
G54D12*
X344Y2089D03*
X444Y2089D03*
X544Y2089D03*
X644Y2089D03*
X744Y2089D03*
X844Y2089D03*
X944Y2089D03*
X1044Y2089D03*
X1144Y2089D03*
X1244Y2089D03*
X1344Y2089D03*
X1444Y2089D03*
X1544Y2089D03*
X1644Y2089D03*
X1744Y2089D03*
X1844Y2089D03*
G54D13*
X844Y89D03*
X744Y89D03*
G54D14*
X3044Y789D03*
X3044Y489D03*
G54D15*
X344Y2089D03*
G54D16*
X44Y589D03*
X166Y589D03*
G54D17*
X844Y627D03*
X844Y489D03*
X1179Y489D03*
X1179Y627D03*
X379Y89D03*
X379Y227D03*
G54D18*
X1682Y689D03*
X1544Y689D03*
X1544Y354D03*
X1682Y354D03*
X2182Y689D03*
X2044Y689D03*
X2044Y354D03*
X2182Y354D03*
X2682Y689D03*
X2544Y689D03*
X2544Y354D03*
X2682Y354D03*
G54D19*
X2047Y714D03*
X2047Y663D03*
X1603Y1159D03*
X1603Y1107D03*
X1825Y936D03*
X1825Y885D03*
X1380Y1381D03*
X1380Y1330D03*
X644Y189D03*
X644Y138D03*
G54D20*
X844Y89D03*
G54D21*
X3044Y789D03*
G54D22*
X3127Y391D02*
X3210Y391D01*
X3127Y390D02*
X3210Y390D01*
X3127Y389D02*
X3210Y389D01*
X3127Y388D02*
X3210Y388D01*
X3127Y387D02*
X3210Y387D01*
X3127Y386D02*
X3210Y386D01*
X3127Y385D02*
X3210Y385D01*
X3127Y384D02*
X3210Y384D01*
X3127Y383D02*
X3210Y383D01*
X3127Y382D02*
X3210Y382D01*
X3127Y381D02*
X3210Y381D01*
X3127Y380D02*
X3210Y380D01*
X3127Y379D02*
X3210Y379D01*
X3127Y378D02*
X3210Y378D01*
X3127Y377D02*
X3210Y377D01*
X3127Y376D02*
X3210Y376D01*
X3127Y375D02*
X3210Y375D01*
X3127Y374D02*
X3210Y374D01*
X3127Y373D02*
X3210Y373D01*
X3127Y372D02*
X3210Y372D01*
X3127Y371D02*
X3210Y371D01*
X3127Y370D02*
X3210Y370D01*
X3127Y369D02*
X3210Y369D01*
X3127Y368D02*
X3210Y368D01*
X3127Y367D02*
X3210Y367D01*
X3127Y366D02*
X3210Y366D01*
X3127Y365D02*
X3210Y365D01*
X3127Y364D02*
X3165Y364D01*
X3172Y364D02*
X3210Y364D01*
X3127Y363D02*
X3162Y363D01*
X3175Y363D02*
X3210Y363D01*
X3127Y362D02*
X3160Y362D01*
X3177Y362D02*
X3210Y362D01*
X3127Y361D02*
X3159Y361D01*
X3178Y361D02*
X3210Y361D01*
X3127Y360D02*
X3157Y360D01*
X3179Y360D02*
X3210Y360D01*
X3127Y359D02*
X3156Y359D01*
X3180Y359D02*
X3210Y359D01*
X3127Y358D02*
X3156Y358D01*
X3181Y358D02*
X3210Y358D01*
X3127Y357D02*
X3155Y357D01*
X3182Y357D02*
X3210Y357D01*
X3127Y356D02*
X3154Y356D01*
X3182Y356D02*
X3210Y356D01*
X3127Y355D02*
X3154Y355D01*
X3183Y355D02*
X3210Y355D01*
X3127Y354D02*
X3154Y354D01*
X3183Y354D02*
X3210Y354D01*
X3127Y353D02*
X3153Y353D01*
X3183Y353D02*
X3210Y353D01*
X3127Y352D02*
X3153Y352D01*
X3184Y352D02*
X3210Y352D01*
X3127Y351D02*
X3153Y351D01*
X3184Y351D02*
X3210Y351D01*
X3127Y350D02*
X3153Y350D01*
X3184Y350D02*
X3210Y350D01*
X3127Y349D02*
X3153Y349D01*
X3184Y349D02*
X3210Y349D01*
X3127Y348D02*
X3153Y348D01*
X3184Y348D02*
X3210Y348D01*
X3127Y347D02*
X3153Y347D01*
X3184Y347D02*
X3210Y347D01*
X3127Y346D02*
X3153Y346D01*
X3184Y346D02*
X3210Y346D01*
X3127Y345D02*
X3153Y345D01*
X3183Y345D02*
X3210Y345D01*
X3127Y344D02*
X3154Y344D01*
X3183Y344D02*
X3210Y344D01*
X3127Y343D02*
X3154Y343D01*
X3183Y343D02*
X3210Y343D01*
X3127Y342D02*
X3155Y342D01*
X3182Y342D02*
X3210Y342D01*
X3127Y341D02*
X3155Y341D01*
X3181Y341D02*
X3210Y341D01*
X3127Y340D02*
X3156Y340D01*
X3181Y340D02*
X3210Y340D01*
X3127Y339D02*
X3157Y339D01*
X3180Y339D02*
X3210Y339D01*
X3127Y338D02*
X3158Y338D01*
X3179Y338D02*
X3210Y338D01*
X3127Y337D02*
X3159Y337D01*
X3177Y337D02*
X3210Y337D01*
X3127Y336D02*
X3161Y336D01*
X3176Y336D02*
X3210Y336D01*
X3127Y335D02*
X3163Y335D01*
X3173Y335D02*
X3210Y335D01*
X3127Y334D02*
X3210Y334D01*
X3127Y333D02*
X3210Y333D01*
X3127Y332D02*
X3210Y332D01*
X3127Y331D02*
X3210Y331D01*
X3127Y330D02*
X3210Y330D01*
X3127Y329D02*
X3210Y329D01*
X3127Y328D02*
X3210Y328D01*
X3127Y327D02*
X3210Y327D01*
X3127Y326D02*
X3210Y326D01*
X3127Y325D02*
X3210Y325D01*
X3127Y324D02*
X3210Y324D01*
X3127Y323D02*
X3210Y323D01*
X3127Y322D02*
X3210Y322D01*
X3127Y321D02*
X3210Y321D01*
X3127Y320D02*
X3210Y320D01*
X3127Y319D02*
X3210Y319D01*
X3127Y318D02*
X3210Y318D01*
X3127Y317D02*
X3210Y317D01*
X3127Y316D02*
X3210Y316D01*
X3127Y315D02*
X3210Y315D01*
X3127Y314D02*
X3210Y314D01*
X3127Y313D02*
X3210Y313D01*
X3127Y312D02*
X3210Y312D01*
X3127Y311D02*
X3210Y311D01*
X3127Y310D02*
X3210Y310D01*
X3127Y309D02*
X3210Y309D01*
X3127Y308D02*
X3210Y308D01*
X0Y271D02*
X117Y271D01*
X0Y270D02*
X117Y270D01*
X0Y269D02*
X117Y269D01*
X0Y268D02*
X117Y268D01*
X0Y267D02*
X117Y267D01*
X0Y266D02*
X117Y266D01*
X0Y265D02*
X117Y265D01*
X0Y264D02*
X117Y264D01*
X0Y263D02*
X117Y263D01*
X0Y262D02*
X117Y262D01*
X0Y261D02*
X117Y261D01*
X0Y260D02*
X117Y260D01*
X0Y259D02*
X117Y259D01*
X0Y258D02*
X117Y258D01*
X0Y257D02*
X117Y257D01*
X0Y256D02*
X117Y256D01*
X0Y255D02*
X117Y255D01*
X0Y254D02*
X117Y254D01*
X0Y253D02*
X117Y253D01*
X0Y252D02*
X117Y252D01*
X0Y251D02*
X117Y251D01*
X0Y250D02*
X117Y250D01*
X0Y249D02*
X117Y249D01*
X0Y248D02*
X117Y248D01*
X0Y247D02*
X117Y247D01*
X0Y246D02*
X117Y246D01*
X0Y245D02*
X117Y245D01*
X0Y244D02*
X117Y244D01*
X0Y243D02*
X117Y243D01*
X0Y242D02*
X117Y242D01*
X0Y241D02*
X117Y241D01*
X0Y240D02*
X117Y240D01*
X0Y239D02*
X117Y239D01*
X0Y238D02*
X117Y238D01*
X0Y237D02*
X117Y237D01*
X0Y236D02*
X117Y236D01*
X0Y235D02*
X117Y235D01*
X0Y234D02*
X117Y234D01*
X0Y233D02*
X117Y233D01*
X0Y232D02*
X117Y232D01*
X0Y231D02*
X117Y231D01*
X0Y230D02*
X117Y230D01*
X0Y229D02*
X117Y229D01*
X0Y228D02*
X117Y228D01*
X0Y227D02*
X117Y227D01*
X0Y226D02*
X117Y226D01*
X0Y225D02*
X117Y225D01*
X0Y224D02*
X117Y224D01*
X0Y223D02*
X117Y223D01*
X0Y222D02*
X117Y222D01*
X0Y221D02*
X117Y221D01*
X0Y220D02*
X117Y220D01*
X0Y219D02*
X117Y219D01*
X0Y218D02*
X117Y218D01*
X0Y217D02*
X117Y217D01*
X0Y216D02*
X117Y216D01*
X0Y215D02*
X117Y215D01*
X0Y214D02*
X117Y214D01*
X0Y213D02*
X117Y213D01*
X0Y212D02*
X117Y212D01*
X0Y211D02*
X117Y211D01*
X0Y210D02*
X117Y210D01*
X0Y209D02*
X117Y209D01*
X0Y208D02*
X117Y208D01*
X0Y207D02*
X117Y207D01*
X0Y206D02*
X117Y206D01*
X0Y205D02*
X117Y205D01*
X0Y204D02*
X117Y204D01*
X0Y203D02*
X117Y203D01*
X0Y202D02*
X117Y202D01*
X0Y201D02*
X117Y201D01*
X0Y200D02*
X117Y200D01*
X0Y199D02*
X117Y199D01*
X0Y198D02*
X117Y198D01*
X0Y197D02*
X117Y197D01*
X0Y196D02*
X117Y196D01*
X0Y195D02*
X117Y195D01*
X0Y194D02*
X117Y194D01*
X0Y193D02*
X117Y193D01*
X0Y192D02*
X117Y192D01*
X0Y191D02*
X117Y191D01*
X0Y190D02*
X117Y190D01*
X0Y189D02*
X117Y189D01*
X0Y188D02*
X117Y188D01*
X0Y187D02*
X117Y187D01*
X0Y186D02*
X117Y186D01*
X0Y185D02*
X117Y185D01*
X0Y184D02*
X117Y184D01*
X0Y183D02*
X117Y183D01*
X0Y133D02*
X117Y133D01*
X0Y132D02*
X117Y132D01*
X0Y131D02*
X117Y131D01*
X0Y130D02*
X117Y130D01*
X0Y129D02*
X117Y129D01*
X0Y128D02*
X117Y128D01*
X0Y127D02*
X117Y127D01*
X0Y126D02*
X117Y126D01*
X0Y125D02*
X117Y125D01*
X0Y124D02*
X117Y124D01*
X0Y123D02*
X117Y123D01*
X0Y122D02*
X117Y122D01*
X0Y121D02*
X117Y121D01*
X0Y120D02*
X117Y120D01*
X0Y119D02*
X117Y119D01*
X0Y118D02*
X117Y118D01*
X0Y117D02*
X117Y117D01*
X0Y116D02*
X117Y116D01*
X0Y115D02*
X117Y115D01*
X0Y114D02*
X117Y114D01*
X0Y113D02*
X117Y113D01*
X0Y112D02*
X117Y112D01*
X0Y111D02*
X117Y111D01*
X0Y110D02*
X117Y110D01*
X0Y109D02*
X117Y109D01*
X0Y108D02*
X117Y108D01*
X0Y107D02*
X117Y107D01*
X0Y106D02*
X117Y106D01*
X0Y105D02*
X117Y105D01*
X0Y104D02*
X117Y104D01*
X0Y103D02*
X117Y103D01*
X0Y102D02*
X117Y102D01*
X0Y101D02*
X117Y101D01*
X0Y100D02*
X117Y100D01*
X0Y99D02*
X117Y99D01*
X0Y98D02*
X117Y98D01*
X0Y97D02*
X117Y97D01*
X0Y96D02*
X117Y96D01*
X0Y95D02*
X117Y95D01*
X0Y94D02*
X117Y94D01*
X0Y93D02*
X117Y93D01*
X0Y92D02*
X117Y92D01*
X0Y91D02*
X117Y91D01*
X0Y90D02*
X117Y90D01*
X0Y89D02*
X117Y89D01*
X0Y88D02*
X117Y88D01*
X0Y87D02*
X117Y87D01*
X0Y86D02*
X117Y86D01*
X0Y85D02*
X117Y85D01*
X0Y84D02*
X117Y84D01*
X0Y83D02*
X117Y83D01*
X0Y82D02*
X117Y82D01*
X0Y81D02*
X117Y81D01*
X0Y80D02*
X117Y80D01*
X0Y79D02*
X117Y79D01*
X0Y78D02*
X117Y78D01*
X0Y77D02*
X117Y77D01*
X0Y76D02*
X117Y76D01*
X0Y75D02*
X117Y75D01*
X0Y74D02*
X117Y74D01*
X0Y73D02*
X117Y73D01*
X0Y72D02*
X117Y72D01*
X0Y71D02*
X117Y71D01*
X0Y70D02*
X117Y70D01*
X0Y69D02*
X117Y69D01*
X0Y68D02*
X117Y68D01*
X0Y67D02*
X117Y67D01*
X0Y66D02*
X117Y66D01*
X0Y65D02*
X117Y65D01*
X0Y64D02*
X117Y64D01*
X0Y63D02*
X117Y63D01*
X0Y62D02*
X117Y62D01*
X0Y61D02*
X117Y61D01*
X0Y60D02*
X117Y60D01*
X0Y59D02*
X117Y59D01*
X0Y58D02*
X117Y58D01*
X0Y57D02*
X117Y57D01*
X0Y56D02*
X117Y56D01*
X0Y55D02*
X117Y55D01*
X0Y54D02*
X117Y54D01*
X0Y53D02*
X117Y53D01*
X0Y52D02*
X117Y52D01*
X0Y51D02*
X117Y51D01*
X0Y50D02*
X117Y50D01*
X0Y49D02*
X117Y49D01*
X0Y48D02*
X117Y48D01*
X0Y47D02*
X117Y47D01*
X0Y46D02*
X117Y46D01*
D02*
G04 End of Mask1*
M02*