; NON-PLATED HOLES START AT T1
; THROUGH (PLATED) HOLES START AT T100
M48
INCH
T100C0.038000
T101C0.052000
T102C0.040278
T103C0.035000
T104C0.040000
%
T100
X007444Y000888
X008444Y000888
T101
X030444Y004888
X030444Y007888
T102
X017444Y010888
X012444Y010888
X014444Y010888
X019444Y010888
X011444Y010888
X016444Y010888
X007444Y010888
X006444Y010888
X010444Y010888
X015444Y010888
X008444Y010888
X005444Y010888
X018444Y010888
X009444Y010888
T103
X007444Y020888
X012444Y020888
X015444Y020888
X010444Y020888
X017444Y020888
X005444Y020888
X006444Y020888
X003444Y020888
X018444Y020888
X011444Y020888
X014444Y020888
X004444Y020888
X009444Y020888
X008444Y020888
X016444Y020888
X013444Y020888
T104
X031691Y003488
X032691Y003488
T00
M30
