G04 MADE WITH FRITZING*
G04 WWW.FRITZING.ORG*
G04 DOUBLE SIDED*
G04 HOLES PLATED*
G04 CONTOUR ON CENTER OF CONTOUR VECTOR*
%ASAXBY*%
%FSLAX23Y23*%
%MOIN*%
%OFA0B0*%
%SFA1.0B1.0*%
%ADD10C,0.085000*%
%ADD11C,0.075278*%
%ADD12C,0.084000*%
%ADD13C,0.088000*%
%ADD14C,0.102000*%
%ADD15R,0.085000X0.085000*%
%ADD16R,0.088000X0.088000*%
%ADD17R,0.102000X0.102000*%
%ADD18R,0.001000X0.001000*%
%LNMASK0*%
G90*
G70*
G54D10*
X344Y2089D03*
X444Y2089D03*
X544Y2089D03*
X644Y2089D03*
X744Y2089D03*
X844Y2089D03*
X944Y2089D03*
X1044Y2089D03*
X1144Y2089D03*
X1244Y2089D03*
X1344Y2089D03*
X1444Y2089D03*
X1544Y2089D03*
X1644Y2089D03*
X1744Y2089D03*
X1844Y2089D03*
G54D11*
X1544Y1089D03*
X1644Y1089D03*
X1744Y1089D03*
X1844Y1089D03*
X1944Y1089D03*
X644Y1089D03*
X544Y1089D03*
X744Y1089D03*
X844Y1089D03*
X944Y1089D03*
X1044Y1089D03*
X1144Y1089D03*
X1244Y1089D03*
X1444Y1089D03*
G54D12*
X3169Y349D03*
X3269Y349D03*
G54D13*
X844Y89D03*
X744Y89D03*
G54D14*
X3044Y789D03*
X3044Y489D03*
G54D15*
X344Y2089D03*
G54D16*
X844Y89D03*
G54D17*
X3044Y789D03*
G54D18*
X3127Y391D02*
X3210Y391D01*
X3127Y390D02*
X3210Y390D01*
X3127Y389D02*
X3210Y389D01*
X3127Y388D02*
X3210Y388D01*
X3127Y387D02*
X3210Y387D01*
X3127Y386D02*
X3210Y386D01*
X3127Y385D02*
X3210Y385D01*
X3127Y384D02*
X3210Y384D01*
X3127Y383D02*
X3210Y383D01*
X3127Y382D02*
X3210Y382D01*
X3127Y381D02*
X3210Y381D01*
X3127Y380D02*
X3210Y380D01*
X3127Y379D02*
X3210Y379D01*
X3127Y378D02*
X3210Y378D01*
X3127Y377D02*
X3210Y377D01*
X3127Y376D02*
X3210Y376D01*
X3127Y375D02*
X3210Y375D01*
X3127Y374D02*
X3210Y374D01*
X3127Y373D02*
X3210Y373D01*
X3127Y372D02*
X3210Y372D01*
X3127Y371D02*
X3210Y371D01*
X3127Y370D02*
X3210Y370D01*
X3127Y369D02*
X3210Y369D01*
X3127Y368D02*
X3210Y368D01*
X3127Y367D02*
X3210Y367D01*
X3127Y366D02*
X3210Y366D01*
X3127Y365D02*
X3210Y365D01*
X3127Y364D02*
X3165Y364D01*
X3172Y364D02*
X3210Y364D01*
X3127Y363D02*
X3162Y363D01*
X3175Y363D02*
X3210Y363D01*
X3127Y362D02*
X3160Y362D01*
X3177Y362D02*
X3210Y362D01*
X3127Y361D02*
X3159Y361D01*
X3178Y361D02*
X3210Y361D01*
X3127Y360D02*
X3157Y360D01*
X3179Y360D02*
X3210Y360D01*
X3127Y359D02*
X3156Y359D01*
X3180Y359D02*
X3210Y359D01*
X3127Y358D02*
X3156Y358D01*
X3181Y358D02*
X3210Y358D01*
X3127Y357D02*
X3155Y357D01*
X3182Y357D02*
X3210Y357D01*
X3127Y356D02*
X3154Y356D01*
X3182Y356D02*
X3210Y356D01*
X3127Y355D02*
X3154Y355D01*
X3183Y355D02*
X3210Y355D01*
X3127Y354D02*
X3154Y354D01*
X3183Y354D02*
X3210Y354D01*
X3127Y353D02*
X3153Y353D01*
X3183Y353D02*
X3210Y353D01*
X3127Y352D02*
X3153Y352D01*
X3184Y352D02*
X3210Y352D01*
X3127Y351D02*
X3153Y351D01*
X3184Y351D02*
X3210Y351D01*
X3127Y350D02*
X3153Y350D01*
X3184Y350D02*
X3210Y350D01*
X3127Y349D02*
X3153Y349D01*
X3184Y349D02*
X3210Y349D01*
X3127Y348D02*
X3153Y348D01*
X3184Y348D02*
X3210Y348D01*
X3127Y347D02*
X3153Y347D01*
X3184Y347D02*
X3210Y347D01*
X3127Y346D02*
X3153Y346D01*
X3184Y346D02*
X3210Y346D01*
X3127Y345D02*
X3153Y345D01*
X3183Y345D02*
X3210Y345D01*
X3127Y344D02*
X3154Y344D01*
X3183Y344D02*
X3210Y344D01*
X3127Y343D02*
X3154Y343D01*
X3183Y343D02*
X3210Y343D01*
X3127Y342D02*
X3155Y342D01*
X3182Y342D02*
X3210Y342D01*
X3127Y341D02*
X3155Y341D01*
X3181Y341D02*
X3210Y341D01*
X3127Y340D02*
X3156Y340D01*
X3181Y340D02*
X3210Y340D01*
X3127Y339D02*
X3157Y339D01*
X3180Y339D02*
X3210Y339D01*
X3127Y338D02*
X3158Y338D01*
X3179Y338D02*
X3210Y338D01*
X3127Y337D02*
X3159Y337D01*
X3177Y337D02*
X3210Y337D01*
X3127Y336D02*
X3161Y336D01*
X3176Y336D02*
X3210Y336D01*
X3127Y335D02*
X3163Y335D01*
X3173Y335D02*
X3210Y335D01*
X3127Y334D02*
X3210Y334D01*
X3127Y333D02*
X3210Y333D01*
X3127Y332D02*
X3210Y332D01*
X3127Y331D02*
X3210Y331D01*
X3127Y330D02*
X3210Y330D01*
X3127Y329D02*
X3210Y329D01*
X3127Y328D02*
X3210Y328D01*
X3127Y327D02*
X3210Y327D01*
X3127Y326D02*
X3210Y326D01*
X3127Y325D02*
X3210Y325D01*
X3127Y324D02*
X3210Y324D01*
X3127Y323D02*
X3210Y323D01*
X3127Y322D02*
X3210Y322D01*
X3127Y321D02*
X3210Y321D01*
X3127Y320D02*
X3210Y320D01*
X3127Y319D02*
X3210Y319D01*
X3127Y318D02*
X3210Y318D01*
X3127Y317D02*
X3210Y317D01*
X3127Y316D02*
X3210Y316D01*
X3127Y315D02*
X3210Y315D01*
X3127Y314D02*
X3210Y314D01*
X3127Y313D02*
X3210Y313D01*
X3127Y312D02*
X3210Y312D01*
X3127Y311D02*
X3210Y311D01*
X3127Y310D02*
X3210Y310D01*
X3127Y309D02*
X3210Y309D01*
X3127Y308D02*
X3210Y308D01*
D02*
G04 End of Mask0*
M02*