G04 MADE WITH FRITZING*
G04 WWW.FRITZING.ORG*
G04 DOUBLE SIDED*
G04 HOLES PLATED*
G04 CONTOUR ON CENTER OF CONTOUR VECTOR*
%ASAXBY*%
%FSLAX23Y23*%
%MOIN*%
%OFA0B0*%
%SFA1.0B1.0*%
%ADD10C,0.075000*%
%ADD11C,0.065278*%
%ADD12C,0.074000*%
%ADD13C,0.078000*%
%ADD14C,0.092000*%
%ADD15R,0.075000X0.075000*%
%ADD16R,0.078000X0.078000*%
%ADD17R,0.092000X0.092000*%
%ADD18R,0.001000X0.001000*%
%LNCOPPER0*%
G90*
G70*
G54D10*
X344Y2089D03*
X444Y2089D03*
X544Y2089D03*
X644Y2089D03*
X744Y2089D03*
X844Y2089D03*
X944Y2089D03*
X1044Y2089D03*
X1144Y2089D03*
X1244Y2089D03*
X1344Y2089D03*
X1444Y2089D03*
X1544Y2089D03*
X1644Y2089D03*
X1744Y2089D03*
X1844Y2089D03*
G54D11*
X1544Y1089D03*
X1644Y1089D03*
X1744Y1089D03*
X1844Y1089D03*
X1944Y1089D03*
X644Y1089D03*
X544Y1089D03*
X744Y1089D03*
X844Y1089D03*
X944Y1089D03*
X1044Y1089D03*
X1144Y1089D03*
X1244Y1089D03*
X1444Y1089D03*
G54D12*
X3169Y349D03*
X3269Y349D03*
G54D13*
X844Y89D03*
X744Y89D03*
G54D14*
X3044Y789D03*
X3044Y489D03*
G54D15*
X344Y2089D03*
G54D16*
X844Y89D03*
G54D17*
X3044Y789D03*
G54D18*
X3132Y386D02*
X3205Y386D01*
X3132Y385D02*
X3205Y385D01*
X3132Y384D02*
X3205Y384D01*
X3132Y383D02*
X3205Y383D01*
X3132Y382D02*
X3205Y382D01*
X3132Y381D02*
X3205Y381D01*
X3132Y380D02*
X3205Y380D01*
X3132Y379D02*
X3205Y379D01*
X3132Y378D02*
X3205Y378D01*
X3132Y377D02*
X3205Y377D01*
X3132Y376D02*
X3205Y376D01*
X3132Y375D02*
X3205Y375D01*
X3132Y374D02*
X3205Y374D01*
X3132Y373D02*
X3205Y373D01*
X3132Y372D02*
X3205Y372D01*
X3132Y371D02*
X3205Y371D01*
X3132Y370D02*
X3205Y370D01*
X3132Y369D02*
X3165Y369D01*
X3172Y369D02*
X3205Y369D01*
X3132Y368D02*
X3161Y368D01*
X3176Y368D02*
X3205Y368D01*
X3132Y367D02*
X3159Y367D01*
X3178Y367D02*
X3205Y367D01*
X3132Y366D02*
X3157Y366D01*
X3180Y366D02*
X3205Y366D01*
X3132Y365D02*
X3156Y365D01*
X3181Y365D02*
X3205Y365D01*
X3132Y364D02*
X3154Y364D01*
X3182Y364D02*
X3205Y364D01*
X3132Y363D02*
X3153Y363D01*
X3183Y363D02*
X3205Y363D01*
X3132Y362D02*
X3153Y362D01*
X3184Y362D02*
X3205Y362D01*
X3132Y361D02*
X3152Y361D01*
X3185Y361D02*
X3205Y361D01*
X3132Y360D02*
X3151Y360D01*
X3186Y360D02*
X3205Y360D01*
X3132Y359D02*
X3150Y359D01*
X3186Y359D02*
X3205Y359D01*
X3132Y358D02*
X3150Y358D01*
X3187Y358D02*
X3205Y358D01*
X3132Y357D02*
X3149Y357D01*
X3187Y357D02*
X3205Y357D01*
X3132Y356D02*
X3149Y356D01*
X3188Y356D02*
X3205Y356D01*
X3132Y355D02*
X3149Y355D01*
X3188Y355D02*
X3205Y355D01*
X3132Y354D02*
X3148Y354D01*
X3188Y354D02*
X3205Y354D01*
X3132Y353D02*
X3148Y353D01*
X3188Y353D02*
X3205Y353D01*
X3132Y352D02*
X3148Y352D01*
X3189Y352D02*
X3205Y352D01*
X3132Y351D02*
X3148Y351D01*
X3189Y351D02*
X3205Y351D01*
X3132Y350D02*
X3148Y350D01*
X3189Y350D02*
X3205Y350D01*
X3132Y349D02*
X3148Y349D01*
X3189Y349D02*
X3205Y349D01*
X3132Y348D02*
X3148Y348D01*
X3189Y348D02*
X3205Y348D01*
X3132Y347D02*
X3148Y347D01*
X3189Y347D02*
X3205Y347D01*
X3132Y346D02*
X3148Y346D01*
X3189Y346D02*
X3205Y346D01*
X3132Y345D02*
X3148Y345D01*
X3188Y345D02*
X3205Y345D01*
X3132Y344D02*
X3149Y344D01*
X3188Y344D02*
X3205Y344D01*
X3132Y343D02*
X3149Y343D01*
X3188Y343D02*
X3205Y343D01*
X3132Y342D02*
X3149Y342D01*
X3187Y342D02*
X3205Y342D01*
X3132Y341D02*
X3150Y341D01*
X3187Y341D02*
X3205Y341D01*
X3132Y340D02*
X3150Y340D01*
X3186Y340D02*
X3205Y340D01*
X3132Y339D02*
X3151Y339D01*
X3186Y339D02*
X3205Y339D01*
X3132Y338D02*
X3151Y338D01*
X3185Y338D02*
X3205Y338D01*
X3132Y337D02*
X3152Y337D01*
X3185Y337D02*
X3205Y337D01*
X3132Y336D02*
X3153Y336D01*
X3184Y336D02*
X3205Y336D01*
X3132Y335D02*
X3154Y335D01*
X3183Y335D02*
X3205Y335D01*
X3132Y334D02*
X3155Y334D01*
X3182Y334D02*
X3205Y334D01*
X3132Y333D02*
X3156Y333D01*
X3180Y333D02*
X3205Y333D01*
X3132Y332D02*
X3158Y332D01*
X3179Y332D02*
X3205Y332D01*
X3132Y331D02*
X3160Y331D01*
X3177Y331D02*
X3205Y331D01*
X3132Y330D02*
X3163Y330D01*
X3174Y330D02*
X3205Y330D01*
X3132Y329D02*
X3205Y329D01*
X3132Y328D02*
X3205Y328D01*
X3132Y327D02*
X3205Y327D01*
X3132Y326D02*
X3205Y326D01*
X3132Y325D02*
X3205Y325D01*
X3132Y324D02*
X3205Y324D01*
X3132Y323D02*
X3205Y323D01*
X3132Y322D02*
X3205Y322D01*
X3132Y321D02*
X3205Y321D01*
X3132Y320D02*
X3205Y320D01*
X3132Y319D02*
X3205Y319D01*
X3132Y318D02*
X3205Y318D01*
X3132Y317D02*
X3205Y317D01*
X3132Y316D02*
X3205Y316D01*
X3132Y315D02*
X3205Y315D01*
X3132Y314D02*
X3205Y314D01*
X3132Y313D02*
X3205Y313D01*
D02*
G04 End of Copper0*
M02*